<?xml version="1.0" encoding="UTF-8"?>
<svg xmlns="http://www.w3.org/2000/svg" xmlns:xlink="http://www.w3.org/1999/xlink" width="56px" height="80px" viewBox="0 0 56 80" version="1.1">
<g id="surface1">
<path style="fill-rule:evenodd;fill:rgb(100%,0%,0%);fill-opacity:1;stroke-width:14.1732;stroke-linecap:butt;stroke-linejoin:miter;stroke:rgb(0%,0%,0%);stroke-opacity:1;stroke-miterlimit:4;" d="M 283.44127 275.030355 C 439.962962 275.030355 566.965576 401.967439 566.965576 558.534513 C 566.965576 715.186608 439.962962 842.166203 283.44127 842.166203 C 126.878061 842.166203 0 715.186608 0 558.534513 C 0 401.967439 126.878061 275.030355 283.44127 275.030355 Z M 283.44127 275.030355 " transform="matrix(0.0940864,0,0,0.0918885,0,1.333333)"/>
<path style="fill-rule:evenodd;fill:rgb(78.431373%,0%,0%);fill-opacity:1;stroke-width:14.1732;stroke-linecap:butt;stroke-linejoin:miter;stroke:rgb(0%,0%,0%);stroke-opacity:1;stroke-miterlimit:4;" d="M 283.44127 275.030355 C 439.962962 275.030355 566.965576 401.882418 566.965576 558.406981 C 566.965576 714.974054 439.962962 841.953649 283.44127 841.953649 C 126.878061 841.953649 0 714.974054 0 558.406981 C 0 401.882418 126.878061 275.030355 283.44127 275.030355 Z M 283.44127 275.030355 " transform="matrix(0.0940864,0,0,0.0918885,0,1.333333)"/>
<path style="fill-rule:evenodd;fill:rgb(100%,0%,0%);fill-opacity:1;stroke-width:5.6693;stroke-linecap:butt;stroke-linejoin:miter;stroke:rgb(0%,0%,0%);stroke-opacity:1;stroke-miterlimit:4;" d="M 243.335182 770.960705 C 270.363198 754.083939 296.809967 754.083939 322.63397 770.960705 M 256.620843 700.137804 C 274.805591 691.380591 292.409092 691.380591 309.348309 700.137804 M 267.249371 643.42847 C 278.334595 638.114627 288.83857 638.114627 298.802816 643.42847 M 288.174287 586.761647 C 285.309567 584.721132 281.863598 584.721132 277.794865 586.761647 C 273.809166 588.802163 230.96291 837.064913 230.96291 837.064913 M 231.50264 830.050641 C 266.834194 836.384742 301.459948 836.384742 335.462936 830.050641 M 325.291102 769.940447 C 344.430757 744.348979 369.00923 734.826572 399.234108 741.288205 M 312.088477 699.117546 C 325.955385 684.366318 342.313355 678.032217 361.245422 679.9452 M 301.459948 642.323191 C 309.888039 633.353424 319.727732 629.612478 330.937508 630.972822 M 300.463523 581.872912 C 297.142108 580.980186 293.945246 582.212998 290.831419 585.613857 C 287.842146 589.014717 337.580338 835.917123 337.580338 835.917123 M 335.462936 829.242936 C 370.79449 822.441217 403.095253 809.858037 432.44826 791.620927 M 398.237684 741.628291 C 406.74881 710.76549 426.262124 692.995999 456.819144 688.234796 M 360.248997 680.285286 C 367.805217 661.580558 380.841771 649.67755 399.234108 644.703793 M 329.941083 631.185376 C 334.591065 619.749985 342.313355 612.735713 353.19099 610.015025 M 307.230907 575.198725 C 303.701903 575.666343 301.127806 577.919413 299.591652 582.212998 C 297.930944 586.549094 433.569238 798.762732 433.569238 798.762732 M 429.126845 793.193825 C 459.559312 774.149011 485.134209 750.810612 505.97609 723.136117 M 455.490578 689.595139 C 452.376752 657.712081 464.209293 634.033596 490.780615 618.602195 M 398.030095 646.064137 C 398.237684 625.871533 406.084527 610.100046 421.48759 598.87721 M 351.945459 611.247837 C 352.194565 598.87721 356.844547 589.482335 366.019956 583.020702 M 310.552322 567.249216 C 307.438495 568.864624 305.902341 571.925397 305.902341 576.559069 C 306.026894 581.107718 509.048399 730.065369 509.048399 730.065369 M 502.986816 726.409444 C 524.451462 697.62967 539.854525 666.681848 549.362076 633.353424 M 490.780615 620.090071 C 476.415494 591.522851 478.82352 565.2087 498.087728 541.062597 M 421.48759 600.365086 C 414.388065 581.320272 416.048773 563.848356 426.34516 547.779294 M 366.019956 584.508578 C 361.702116 572.945655 362.698541 562.488012 368.884677 553.093137 M 311.424194 558.406981 C 309.099203 561.042647 308.767061 564.443506 310.552322 568.737092 C 312.21303 572.945655 555.340623 638.454713 555.340623 638.454713 M 548.490204 637.306923 C 557.997755 602.745688 561.194617 568.269473 557.997755 533.83577 M 498.752011 538.681995 C 475.086928 517.25658 467.86285 491.877665 477.079777 462.50274 M 427.009443 545.398693 C 413.640747 530.179846 408.741659 513.30308 412.519769 494.598352 M 369.54896 550.712536 C 361.369975 541.402683 358.505254 531.200104 360.91328 520.317353 M 309.348309 546.078865 C 308.102778 549.352192 309.016168 552.625519 312.088477 555.941357 C 315.202303 559.342217 565.63701 532.560448 565.63701 532.560448 M 558.786591 534.048324 C 555.21607 498.339298 545.708519 464.883342 530.305456 433.93552 M 477.287366 462.077633 C 447.394629 450.599732 431.451836 429.514402 429.458987 398.821644 M 412.727358 494.130734 C 394.70868 484.863392 384.163187 470.792335 380.841771 452.087608 M 361.037833 519.892246 C 350.077163 514.110784 343.766474 505.693657 341.981214 494.598352 M 303.120656 537.23663 C 303.245209 540.722511 305.362611 543.570731 309.431344 545.483714 C 313.541596 547.52423 537.404981 432.150068 537.404981 432.150068 M 531.426434 435.976035 C 515.276052 403.922934 494.351136 376.248439 468.776239 352.91004 M 431.90853 399.71437 C 400.022944 399.841902 377.520356 385.983399 364.483802 358.011329 M 383.291315 452.980333 C 363.238271 450.854796 348.291902 441.544943 338.45221 425.220817 M 344.430757 495.61861 C 332.141521 494.258267 323.298253 488.689359 317.651847 478.954398 M 296.809967 532.815512 C 298.138533 535.961307 301.044771 537.789269 305.570199 538.256888 C 310.095628 538.596973 477.162813 350.06182 477.162813 350.06182 M 473.094079 355.843281 C 446.398204 331.82471 416.962162 313.54509 384.619881 301.089442 M 363.155236 356.991071 C 333.470087 368.766548 307.438495 363.877812 285.185013 342.452396 M 337.123644 424.200559 C 317.651847 429.514402 300.255935 426.241075 285.185013 414.55062 M 316.323281 478.061673 C 304.366186 481.207468 293.945246 479.294484 285.185013 472.280211 M 285.185013 529.83976 C 287.634557 532.475426 291.080525 533.155598 295.398365 531.795254 C 299.79924 530.519932 387.484602 294.415255 387.484602 294.415255 M 385.740859 301.216974 C 352.194565 288.506261 318.067024 282.17216 283.44127 282.17216 M 284.977425 342.112311 C 261.51993 363.79279 235.488338 368.639015 207.048721 356.650985 M 284.977425 414.210534 C 268.577937 426.113542 251.306578 429.429381 233.038795 423.860473 M 284.977425 471.940125 C 274.888626 479.166952 264.592239 481.122446 253.880675 477.721587 M 274.805591 531.455168 C 277.8779 533.028066 281.323868 532.347894 284.852872 529.627206 C 288.506429 526.778986 284.977425 275.030355 284.977425 275.030355 M 285.766261 281.917096 C 249.894977 282.17216 215.891989 288.633793 183.549708 301.089442 M 205.388013 356.736007 C 191.188963 385.43076 168.727893 399.374284 137.963284 398.481558 M 231.378087 423.988005 C 220.417417 440.992303 205.471048 450.259646 186.455946 451.747522 M 252.219967 477.806608 C 245.452584 488.136719 236.609316 493.705627 225.316504 494.385799 M 264.177062 536.981565 C 267.706066 537.321651 270.570787 535.5362 273.02033 531.54019 C 275.345321 527.586691 181.141682 294.075169 181.141682 294.075169 M 184.338544 300.281738 C 150.999839 313.54509 121.563797 331.82471 95.9889 355.035577 M 137.631143 398.694112 C 134.849458 430.53466 118.906665 451.619989 89.885799 461.9501 M 186.20684 451.960075 C 182.221142 471.812593 171.592613 485.88365 154.445807 494.045713 M 225.067398 494.598352 C 222.534819 506.713915 216.22413 515.131042 206.052296 519.764713 M 257.617267 545.483714 C 261.063235 544.463456 263.056085 541.742769 263.927956 537.23663 C 264.716792 532.68798 92.459896 349.041562 92.459896 349.041562 M 97.77416 353.675233 C 71.410427 377.948868 50.485511 405.623363 35.082448 436.656207 M 89.802764 461.737547 C 98.646032 492.430305 91.463471 517.85173 68.089012 538.001823 M 154.321254 493.918181 C 157.642669 513.85572 152.909653 530.774996 139.83158 544.718521 M 205.927743 519.637181 C 208.045145 531.795254 205.138907 541.997833 197.292063 550.032364 M 254.752547 555.346207 C 257.534232 553.22067 258.406103 549.81981 257.534232 545.398693 C 256.620843 540.850043 29.685148 431.809982 29.685148 431.809982 M 36.327979 434.190584 C 20.468221 466.371218 10.96067 499.699642 7.763808 534.175856 M 68.213565 536.428925 C 87.560808 561.80784 90.010352 588.249524 75.520678 615.4564 M 139.956133 543.103112 C 150.335556 560.447496 151.996264 578.046945 144.813703 595.731415 M 197.416617 548.459466 C 203.727305 559.087153 204.72373 569.544796 200.281337 579.959928 M 255.748971 564.10342 C 257.617267 561.127668 257.285126 557.726809 254.8771 553.773309 C 252.427556 549.904832 1.328566 530.307378 1.328566 530.307378 M 8.303538 530.094824 C 5.314264 565.80385 8.511126 600.365086 17.935642 633.69351 M 75.271572 617.837002 C 102.507177 634.501214 114.381236 658.179699 110.603126 688.787435 M 144.68915 598.112016 C 160.631943 610.567665 168.395751 626.339151 168.188163 645.383965 M 200.156784 582.34053 C 209.913441 589.949953 214.563423 599.344828 214.231281 610.567665 M 260.191364 575.878897 C 260.855647 572.350505 259.277975 569.289731 255.624418 566.569044 C 251.970861 563.848356 10.753082 636.201644 10.753082 636.201644 M 17.146806 633.480956 C 27.235605 667.914659 42.721703 698.990014 63.563584 726.664509 M 110.935268 688.659903 C 142.364159 694.356343 161.960509 712.125834 169.516729 742.053399 M 168.520304 645.1289 C 187.867548 651.037894 200.821067 662.81337 207.463898 680.752904 M 214.563423 610.440132 C 226.395964 614.096056 234.159772 621.110329 237.937882 631.780526 M 268.245796 582.680616 C 267.581513 579.279756 265.048934 576.899155 260.606541 575.666343 C 256.205666 574.518553 57.33593 729.045111 57.33593 729.045111 M 62.442606 724.156375 C 84.239393 752.723596 109.81429 776.061994 139.29185 794.341615 M 169.724317 742.053399 C 201.070173 736.059384 225.731681 745.58179 243.584288 770.748151 M 207.713004 680.752904 C 227.849083 679.137496 244.248571 685.514108 256.869949 699.797718 M 238.020917 631.780526 C 250.310154 630.760268 260.191364 634.586235 267.498477 643.088384 M 278.127006 586.421561 C 276.217192 583.48832 273.02033 582.212998 268.494902 582.680616 C 263.844921 583.148234 134.309728 799.102818 134.309728 799.102818 M 137.299001 792.726206 C 167.939057 811.430934 200.281337 823.929093 234.284325 830.390726 " transform="matrix(0.0940864,0,0,0.0918885,0,1.333333)"/>
<path style=" stroke:none;fill-rule:evenodd;fill:rgb(0%,0%,0%);fill-opacity:1;" d="M 15.519531 41.59375 C 19.574219 45.730469 22.394531 49.269531 23.980469 52.21875 C 24.46875 53.917969 24.988281 53.53125 25.457031 52.980469 C 20.574219 84.3125 -9.855469 54.8125 12.605469 33.949219 C 11.207031 36.738281 12.1875 39.28125 15.519531 41.59375 Z M 15.519531 41.59375 "/>
<path style="fill-rule:evenodd;fill:rgb(100%,100%,100%);fill-opacity:1;stroke-width:0.216;stroke-linecap:butt;stroke-linejoin:miter;stroke:rgb(10.588235%,9.803922%,9.411765%);stroke-opacity:1;stroke-miterlimit:4;" d="M 244.663748 586.209008 C 220.209828 539.149613 174.498852 498.806916 107.4893 465.138406 C 34.418165 658.732339 203.063022 765.774394 244.663748 586.209008 Z M 244.663748 586.209008 " transform="matrix(0.0940864,0,0,0.0918885,0,1.333333)"/>
<path style=" stroke:none;fill-rule:evenodd;fill:rgb(0%,0%,0%);fill-opacity:1;" d="M 38.199219 41.65625 C 34.144531 45.800781 31.324219 49.34375 29.738281 52.292969 C 29.25 53.980469 28.730469 53.59375 28.269531 53.050781 C 33.144531 84.386719 63.574219 54.886719 41.125 34.011719 C 42.511719 36.800781 41.53125 39.355469 38.199219 41.65625 Z M 38.199219 41.65625 "/>
<path style="fill-rule:evenodd;fill:rgb(100%,100%,100%);fill-opacity:1;stroke-width:0.216;stroke-linecap:butt;stroke-linejoin:miter;stroke:rgb(10.588235%,9.803922%,9.411765%);stroke-opacity:1;stroke-miterlimit:4;" d="M 326.287527 586.88918 C 350.741446 539.829785 396.576976 499.487088 463.461975 465.9036 C 536.533109 659.540043 367.888252 766.539588 326.287527 586.88918 Z M 326.287527 586.88918 " transform="matrix(0.0940864,0,0,0.0918885,0,1.333333)"/>
</g>
</svg>
